<svg id="Layer_1" enable-background="new 0 0 512 512" height="512" viewBox="0 0 512 512" width="512" xmlns="http://www.w3.org/2000/svg"><g><path d="m56.29 410.807c-4.142 0-7.5 3.364-7.5 7.514s3.358 7.514 7.5 7.514h47.795c4.142 0 7.5-3.364 7.5-7.514s-3.358-7.514-7.5-7.514z"/><path d="m152.085 425.835c4.142 0 7.5-3.364 7.5-7.514s-3.358-7.514-7.5-7.514h-17.795c-4.142 0-7.5 3.364-7.5 7.514s3.358 7.514 7.5 7.514z"/><path d="m231.29 450.875c-4.142 0-7.5 3.364-7.5 7.514s3.358 7.514 7.5 7.514h20.795c4.142 0 7.5-3.364 7.5-7.514s-3.358-7.514-7.5-7.514z"/><path d="m118.79 458.388c0 4.15 3.358 7.514 7.5 7.514h74.795c4.142 0 7.5-3.364 7.5-7.514s-3.358-7.514-7.5-7.514h-74.795c-4.142.001-7.5 3.365-7.5 7.514z"/><path d="m394.38 418.321c0-4.15-3.358-7.514-7.5-7.514h-67.795c-4.142 0-7.5 3.364-7.5 7.514s3.358 7.514 7.5 7.514h67.795c4.142 0 7.5-3.364 7.5-7.514z"/><path d="m288.88 425.835c4.142 0 7.5-3.364 7.5-7.514s-3.358-7.514-7.5-7.514h-27.795c-4.142 0-7.5 3.364-7.5 7.514s3.358 7.514 7.5 7.514z"/><path d="m342.55 465.902h104.154c4.142 0 7.5-3.364 7.5-7.514s-3.358-7.514-7.5-7.514h-104.154c-4.142 0-7.5 3.364-7.5 7.514s3.358 7.514 7.5 7.514z"/><path d="m120.922 333.112c36.747-28.413 84.719-44.061 135.078-44.061s98.331 15.648 135.078 44.061c1.365 1.055 2.977 1.566 4.577 1.566 2.245 0 4.465-1.006 5.943-2.923 2.531-3.285 1.924-8.003-1.355-10.539-30.767-23.789-68.787-39.223-109.551-44.828l-12.679-125.053 60.092 68.725c1.483 1.696 3.558 2.563 5.645 2.563 1.754 0 3.516-.613 4.938-1.861 10.267-9.008 14.316-23.472 11.401-40.727-2.692-15.938-11.126-32.664-23.747-47.098-3.393-3.88-6.941-7.44-10.592-10.666h63.427c4.142 0 7.5-3.364 7.5-7.514 0-27.231-32.543-48.562-74.088-48.562-5.15 0-10.161.328-14.99.954l41.789-47.793c1.311-1.499 1.973-3.458 1.842-5.447s-1.046-3.843-2.542-5.156c-20.449-17.941-57.91-7.473-85.283 23.831-2.664 3.047-5.137 6.191-7.405 9.401-2.28-3.227-4.752-6.368-7.404-9.401-27.374-31.305-64.835-41.773-85.283-23.831-1.497 1.313-2.411 3.167-2.542 5.156-.131 1.988.531 3.948 1.842 5.447l41.79 47.793c-4.828-.626-9.84-.954-14.99-.954-41.545 0-74.088 21.331-74.088 48.562 0 4.15 3.358 7.514 7.5 7.514h63.427c-3.651 3.226-7.199 6.786-10.592 10.666-12.621 14.434-21.055 31.16-23.747 47.098-2.915 17.255 1.134 31.719 11.401 40.727 1.423 1.249 3.185 1.861 4.938 1.861 2.086 0 4.162-.867 5.645-2.563l60.092-68.725-2.977 29.36c-.419 4.129 2.583 7.815 6.704 8.234.258.026.513.039.767.039 3.801 0 7.061-2.885 7.453-6.755l5.108-50.383 4.956-5.67 4.958 5.671 14.492 142.932c-6.436-.49-12.925-.739-19.451-.739s-13.014.249-19.451.739l5.981-58.992c.419-4.128-2.583-7.815-6.704-8.234-4.118-.425-7.801 2.587-8.219 6.716l-6.3 62.135c-40.764 5.605-78.784 21.039-109.551 44.828-3.279 2.536-3.886 7.254-1.355 10.539 2.534 3.285 7.243 3.891 10.522 1.357zm224.377-150.57c1.394 8.251.717 15.372-1.891 20.778l-75.794-86.683c15.127-5.021 39.328 5.483 57.444 26.201 10.817 12.371 18.005 26.471 20.241 39.704zm34.814-75.299h-76.688c-11.972-5.757-23.963-8.021-34.431-6.36 9.496-11.484 30.222-19.661 53.594-19.661 27.496 0 51.329 11.318 57.525 26.021zm-105.425-64.757c18.116-20.718 42.315-31.219 57.444-26.2l-50.525 57.783c-10.963 4.693-19.822 11.253-25.607 19.045-.706-.95-1.457-1.883-2.252-2.795-.078-14.72 7.774-32.775 20.94-47.833zm-94.82-26.201c15.124-5.021 39.327 5.483 57.444 26.201 3.834 4.386 7.231 9.017 10.131 13.808-3.719 7.52-6.315 15.154-7.652 22.561-2.919-1.756-6.061-3.357-9.397-4.786zm-47.981 90.958c6.196-14.703 30.029-26.021 57.525-26.021 23.373 0 44.098 8.178 53.594 19.661-10.469-1.661-22.46.602-34.431 6.359h-76.688zm36.704 96.076c-2.607-5.406-3.285-12.527-1.891-20.778 2.236-13.233 9.424-27.333 20.241-39.704 15.102-17.272 34.431-27.442 49.208-27.442 2.949 0 5.719.406 8.236 1.241z"/><path d="m504.5 496.973h-91.412c-4.142 0-7.5 3.364-7.5 7.514s3.358 7.514 7.5 7.514h91.412c4.142 0 7.5-3.364 7.5-7.514s-3.358-7.514-7.5-7.514z"/><path d="m7.5 360.725c7.323 0 10.751 3.317 15.497 7.908 5.583 5.402 12.533 12.126 25.917 12.126s20.333-6.724 25.917-12.126c4.745-4.591 8.174-7.908 15.497-7.908 7.324 0 10.752 3.317 15.498 7.908 5.584 5.402 12.534 12.126 25.918 12.126s20.334-6.723 25.918-12.126c4.746-4.591 8.174-7.908 15.499-7.908 7.324 0 10.752 3.317 15.498 7.908 5.584 5.402 12.534 12.126 25.917 12.126s20.332-6.724 25.916-12.126c4.745-4.591 8.173-7.908 15.495-7.908 7.324 0 10.752 3.317 15.498 7.908 5.584 5.402 12.534 12.126 25.918 12.126s20.333-6.723 25.918-12.126c4.746-4.591 8.174-7.908 15.499-7.908s10.753 3.317 15.499 7.908c5.584 5.402 12.535 12.126 25.919 12.126s20.334-6.724 25.918-12.126c4.746-4.591 8.174-7.908 15.499-7.908 7.326 0 10.755 3.318 15.502 7.908 5.585 5.402 12.535 12.126 25.921 12.126s20.336-6.723 25.921-12.126c4.747-4.591 8.176-7.908 15.502-7.908 4.142 0 7.5-3.364 7.5-7.514s-3.358-7.514-7.5-7.514c-13.386 0-20.336 6.723-25.921 12.126-4.747 4.591-8.176 7.908-15.502 7.908s-10.755-3.317-15.502-7.908c-5.585-5.402-12.535-12.126-25.921-12.126-13.384 0-20.334 6.724-25.918 12.126-4.746 4.591-8.174 7.908-15.499 7.908s-10.754-3.317-15.5-7.908c-5.584-5.402-12.535-12.126-25.919-12.126s-20.334 6.724-25.918 12.126c-4.746 4.591-8.174 7.908-15.498 7.908s-10.752-3.317-15.498-7.908c-5.584-5.402-12.534-12.126-25.918-12.126-13.383 0-20.332 6.724-25.916 12.126-4.745 4.591-8.173 7.908-15.495 7.908-7.323 0-10.752-3.317-15.498-7.908-5.584-5.402-12.534-12.126-25.918-12.126s-20.334 6.724-25.918 12.126c-4.746 4.591-8.174 7.908-15.498 7.908s-10.752-3.317-15.498-7.908c-5.584-5.402-12.534-12.126-25.918-12.126s-20.333 6.724-25.917 12.126c-4.745 4.591-8.174 7.908-15.497 7.908s-10.751-3.317-15.497-7.908c-5.583-5.402-12.533-12.126-25.917-12.126-4.142 0-7.5 3.364-7.5 7.514s3.358 7.514 7.5 7.514z"/><path d="m378.232 496.973h-370.732c-4.142 0-7.5 3.364-7.5 7.514 0 4.149 3.358 7.513 7.5 7.513h370.732c4.142 0 7.5-3.364 7.5-7.514 0-4.149-3.358-7.513-7.5-7.513z"/></g></svg>