<svg id="Layer_1" enable-background="new 0 0 512 512" height="512" viewBox="0 0 512 512" width="512" xmlns="http://www.w3.org/2000/svg"><g><path d="m355.421 498.513-87.21-65.813 85.205-64.3h27.279c15.32 0 27.784-12.45 27.784-27.754 0-9.51-7.743-17.246-17.261-17.246h-127.958v-113.881c0-14.269 11.631-25.877 25.928-25.877s25.928 11.608 25.928 25.877c0 4.142 3.357 7.5 7.5 7.5 4.085 0 7.406-3.265 7.498-7.327.008-.278.023-.804.039-1.559.724-13.627 12.06-24.491 25.891-24.491 14.297 0 25.929 11.608 25.929 25.877 0 4.142 3.357 7.5 7.5 7.5 4.088 0 7.411-3.271 7.498-7.337.002-.094.008-.389.012-.871.377-13.943 11.858-25.169 25.918-25.169 14.297 0 25.928 11.608 25.928 25.877 0 4.142 3.357 7.5 7.5 7.5s7.5-3.358 7.5-7.5c0-46.762-22.275-94.469-61.114-130.89-38.464-36.068-87.73-56.677-139.453-58.497v-12.632c0-4.142-3.357-7.5-7.5-7.5s-7.5 3.358-7.5 7.5v12.632c-51.723 1.82-100.989 22.429-139.453 58.497-38.839 36.42-61.114 84.128-61.114 130.89 0 4.142 3.357 7.5 7.5 7.5s7.5-3.358 7.5-7.5c0-14.269 11.631-25.877 25.928-25.877s25.928 11.608 25.928 25.877c0 4.142 3.357 7.5 7.5 7.5s7.5-3.358 7.5-7.5c0-14.269 11.632-25.877 25.929-25.877 13.831 0 25.166 10.864 25.891 24.491.016.755.031 1.282.039 1.559.092 4.062 3.413 7.327 7.498 7.327 4.143 0 7.5-3.358 7.5-7.5 0-14.269 11.631-25.877 25.928-25.877s25.928 11.608 25.928 25.877v113.881h-25.078c-4.143 0-7.5 3.358-7.5 7.5s3.357 7.5 7.5 7.5h168.036c1.247 0 2.261 1.008 2.261 2.246 0 7.033-5.735 12.754-12.784 12.754h-249.873c-7.049 0-12.784-5.721-12.784-12.754 0-1.238 1.014-2.246 2.261-2.246h67.921c4.143 0 7.5-3.358 7.5-7.5s-3.357-7.5-7.5-7.5h-67.921c-9.518 0-17.261 7.736-17.261 17.246 0 15.304 12.464 27.754 27.784 27.754h27.279l85.205 64.3-87.21 65.813c-3.307 2.495-3.964 7.198-1.469 10.504 1.475 1.954 3.72 2.983 5.992 2.983 1.573 0 3.159-.493 4.512-1.514l83.126-62.731v49.245h-17.538c-4.143 0-7.5 3.358-7.5 7.5s3.357 7.5 7.5 7.5h50.076c4.143 0 7.5-3.358 7.5-7.5s-3.357-7.5-7.5-7.5h-17.539v-49.244l83.126 62.731c1.353 1.021 2.938 1.514 4.512 1.514 2.272 0 4.519-1.029 5.992-2.983 2.495-3.307 1.838-8.01-1.469-10.505zm37.031-408.942c26.088 24.463 44.073 54.293 51.925 85.164-6.247-3.862-13.606-6.093-21.477-6.093-10.623 0-20.313 4.064-27.596 10.716-.825-7.661-2.049-16.398-3.862-25.762-9.842-50.82-29.449-80.327-44.672-96.387 16.431 8.506 31.81 19.354 45.682 32.362zm-57.763-23.284c30.229 30.861 41.155 78.261 45.091 109.949-6.699-4.779-14.895-7.594-23.736-7.594-9.981 0-19.138 3.587-26.249 9.538-1.536-38.832-8.056-103.478-33.534-136.583 14.557 5.193 27.406 13.438 38.428 24.69zm-71.429-30.439c6.238 1.468 11.88 4.853 17.099 10.232 25.903 26.702 32.666 92.056 34.332 131.49-7-5.585-15.868-8.929-25.503-8.929-9.831 0-18.863 3.48-25.928 9.272zm-81.534 142.332c-7.111-5.951-16.268-9.538-26.249-9.538-8.862 0-17.075 2.828-23.783 7.627 1.493-12.139 4.011-26.576 8.254-41.472 1.135-3.984-1.175-8.133-5.158-9.268-3.979-1.135-8.134 1.174-9.268 5.159-5.103 17.915-7.847 34.992-9.316 48.659-7.281-6.646-16.967-10.706-27.585-10.706-7.871 0-15.23 2.231-21.477 6.093 7.851-30.87 25.837-60.701 51.925-85.164 13.875-13.011 29.257-23.86 45.692-32.368-10.896 11.478-20.189 25.542-27.742 42.012-1.727 3.765-.074 8.217 3.691 9.944 1.013.464 2.075.685 3.121.685 2.842 0 5.561-1.624 6.822-4.375 14.917-32.527 36.57-53.9 64.628-63.897-25.495 33.096-32.019 97.766-33.555 136.609zm66.534-.267c-7.064-5.791-16.097-9.272-25.928-9.272-9.635 0-18.503 3.343-25.503 8.929 1.666-39.434 8.429-104.788 34.332-131.49 5.219-5.379 10.861-8.764 17.099-10.232zm0 239.731-65.254-49.244h65.254zm15-49.244h65.254l-65.254 49.244z"/><path d="m120.914 388.4h-91.685l-14.275-127.129c-.463-4.116-4.174-7.076-8.29-6.616-4.116.462-7.078 4.174-6.616 8.29l14.977 133.374v108.181c0 4.142 3.357 7.5 7.5 7.5s7.5-3.358 7.5-7.5v-71.1h93.048v71.1c0 4.142 3.357 7.5 7.5 7.5s7.5-3.358 7.5-7.5l.088-98.854c-.001-9.51-7.738-17.246-17.247-17.246zm2.246 30h-93.136v-15h90.889c1.238 0 2.246 1.008 2.246 2.246v12.754z"/><path d="m505.337 254.655c-4.121-.459-7.827 2.5-8.29 6.616l-14.275 127.129h-30.412c-4.143 0-7.5 3.358-7.5 7.5s3.357 7.5 7.5 7.5h29.617v15h-93.136v-12.754c0-1.238 1.015-2.246 2.261-2.246h26.053c4.143 0 7.5-3.358 7.5-7.5s-3.357-7.5-7.5-7.5h-26.053c-9.518 0-17.261 7.736-17.261 17.246l.088 98.854c0 4.142 3.357 7.5 7.5 7.5s7.5-3.358 7.5-7.5v-71.1h93.048v71.1c0 4.142 3.357 7.5 7.5 7.5s7.5-3.358 7.5-7.5v-108.181l14.976-133.374c.462-4.116-2.5-7.828-6.616-8.29z"/></g></svg>